<svg id="color" enable-background="new 0 0 24 24" height="512" viewBox="0 0 24 24" width="512" xmlns="http://www.w3.org/2000/svg"><path d="m12 24c-.099 0-.198-.02-.292-.059l-11.25-4.75c-.277-.117-.458-.39-.458-.691s.181-.574.459-.691l11.25-4.75c.187-.079.396-.079.583 0l11.25 4.75c.277.117.458.39.458.691s-.181.574-.458.691l-11.25 4.75c-.094.039-.193.059-.292.059z" fill="#2196f3"/><path d="m12 20c-.099 0-.198-.02-.292-.059l-11.25-4.75c-.277-.117-.458-.39-.458-.691s.181-.574.459-.691l11.25-4.75c.187-.079.396-.079.583 0l11.25 4.75c.277.117.458.39.458.691s-.181.574-.458.691l-11.25 4.75c-.094.039-.193.059-.292.059z" fill="#cfd8dc"/><path d="m12 16c-.099 0-.198-.02-.292-.059l-11.25-4.75c-.277-.117-.458-.39-.458-.691s.181-.574.459-.691l11.25-4.75c.187-.079.396-.079.583 0l11.25 4.75c.277.117.458.39.458.691s-.181.574-.458.691l-11.25 4.75c-.094.039-.193.059-.292.059z" fill="#2196f3"/><path d="m12 12c-.099 0-.198-.02-.292-.059l-11.25-4.75c-.277-.117-.458-.39-.458-.691s.181-.574.459-.691l11.25-4.75c.187-.079.396-.079.583 0l11.25 4.75c.277.117.458.39.458.691s-.181.574-.458.691l-11.25 4.75c-.094.039-.193.059-.292.059z" fill="#cfd8dc"/><path d="m3.559 16.5-3.1 1.309c-.278.117-.459.39-.459.691 0 .301.181.574.459.691l11.25 4.75c.093.039.192.059.291.059v-4c-.099 0-.198-.02-.292-.059z" fill="#1d83d4"/><path d="m3.559 12.5-3.1 1.309c-.278.117-.459.39-.459.691 0 .301.181.574.459.691l3.1 1.309 8.15 3.441c.093.039.192.059.291.059v-4c-.099 0-.198-.02-.292-.059z" fill="#b4bcc0"/><path d="m3.559 8.5-3.1 1.309c-.278.117-.459.39-.459.691 0 .301.181.574.459.691l3.1 1.309 8.15 3.441c.093.039.192.059.291.059v-4c-.099 0-.198-.02-.292-.059z" fill="#1d83d4"/><path d="m12 1c-.099 0-.198.02-.292.059l-11.25 4.75c-.277.117-.458.39-.458.691 0 .301.181.574.459.691l3.1 1.309 8.15 3.441c.093.039.192.059.291.059z" fill="#b4bcc0"/></svg>